<mxfile host="app.diagrams.net" agent="Mozilla/5.0 (Windows NT 10.0; Win64; x64) AppleWebKit/537.36 (KHTML, like Gecko) Chrome/137.0.0.0 Safari/537.36" version="27.1.4">
  <diagram name="第 1 页" id="ez0tuMwPaUk3fe16kJSy">
    <mxGraphModel dx="1042" dy="535" grid="1" gridSize="10" guides="1" tooltips="1" connect="1" arrows="1" fold="1" page="1" pageScale="1" pageWidth="827" pageHeight="1169" math="0" shadow="0">
      <root>
        <mxCell id="0" />
        <mxCell id="1" parent="0" />
        <mxCell id="fDkPUPrDeX1091wnxDDi-9" style="edgeStyle=orthogonalEdgeStyle;rounded=0;orthogonalLoop=1;jettySize=auto;html=1;exitX=1;exitY=0.5;exitDx=0;exitDy=0;entryX=0;entryY=0.5;entryDx=0;entryDy=0;" parent="1" source="fDkPUPrDeX1091wnxDDi-1" target="fDkPUPrDeX1091wnxDDi-3" edge="1">
          <mxGeometry relative="1" as="geometry" />
        </mxCell>
        <mxCell id="fDkPUPrDeX1091wnxDDi-1" value="Studio One" style="rounded=0;whiteSpace=wrap;html=1;" parent="1" vertex="1">
          <mxGeometry x="160" y="170" width="160" height="70" as="geometry" />
        </mxCell>
        <mxCell id="fDkPUPrDeX1091wnxDDi-28" style="edgeStyle=orthogonalEdgeStyle;rounded=0;orthogonalLoop=1;jettySize=auto;html=1;entryX=0;entryY=0.5;entryDx=0;entryDy=0;" parent="1" source="fDkPUPrDeX1091wnxDDi-3" target="fDkPUPrDeX1091wnxDDi-27" edge="1">
          <mxGeometry relative="1" as="geometry" />
        </mxCell>
        <mxCell id="fDkPUPrDeX1091wnxDDi-3" value="LoopBack" style="rounded=0;whiteSpace=wrap;html=1;" parent="1" vertex="1">
          <mxGeometry x="450" y="170" width="160" height="70" as="geometry" />
        </mxCell>
        <mxCell id="fDkPUPrDeX1091wnxDDi-6" value="Loopback 是一款 macOS 上的虚拟音频设备创建软件。它可以让你将不同的应用程序的音频输出混合在一起，并将混合后的音频作为单个输入发送到另一个应用程序。 简单来说，它就像一个虚拟的音频调音台，可以灵活地路由音频信号。&#xa;&#xa;" style="text;whiteSpace=wrap;" parent="1" vertex="1">
          <mxGeometry x="20" y="590" width="560" height="70" as="geometry" />
        </mxCell>
        <mxCell id="fDkPUPrDeX1091wnxDDi-7" value="Studio One 是一款数字音频工作站 (DAW)，用于录音、编辑、混音和母带制作。负责处理你的麦克风声音（人声），添加效果（混响、压缩等），以及播放背景音乐。 它就像你的“声音处理中心”。" style="text;whiteSpace=wrap;fontSize=13;" parent="1" vertex="1">
          <mxGeometry x="20" y="535" width="560" height="50" as="geometry" />
        </mxCell>
        <mxCell id="fDkPUPrDeX1091wnxDDi-8" style="edgeStyle=orthogonalEdgeStyle;rounded=0;orthogonalLoop=1;jettySize=auto;html=1;exitX=0.5;exitY=1;exitDx=0;exitDy=0;" parent="1" source="fDkPUPrDeX1091wnxDDi-1" target="fDkPUPrDeX1091wnxDDi-1" edge="1">
          <mxGeometry relative="1" as="geometry" />
        </mxCell>
        <mxCell id="fDkPUPrDeX1091wnxDDi-15" value="麦克风输入" style="rounded=1;whiteSpace=wrap;html=1;arcSize=40;fontColor=#000000;fillColor=#ffffc0;strokeColor=#ff0000;" parent="1" vertex="1">
          <mxGeometry x="130" y="70" width="120" height="40" as="geometry" />
        </mxCell>
        <mxCell id="fDkPUPrDeX1091wnxDDi-16" value="" style="edgeStyle=orthogonalEdgeStyle;html=1;verticalAlign=bottom;endArrow=open;endSize=8;strokeColor=#ff0000;rounded=0;" parent="1" source="fDkPUPrDeX1091wnxDDi-15" edge="1">
          <mxGeometry relative="1" as="geometry">
            <mxPoint x="190" y="170" as="targetPoint" />
          </mxGeometry>
        </mxCell>
        <mxCell id="fDkPUPrDeX1091wnxDDi-19" value="连接到声卡的麦克风输入接口" style="text;whiteSpace=wrap;" parent="1" vertex="1">
          <mxGeometry x="10" y="40" width="190" height="40" as="geometry" />
        </mxCell>
        <mxCell id="fDkPUPrDeX1091wnxDDi-21" value="声卡: 通过 USB 连接到电脑，苹果是lighting口" style="text;whiteSpace=wrap;" parent="1" vertex="1">
          <mxGeometry x="10" y="20" width="300" height="40" as="geometry" />
        </mxCell>
        <mxCell id="fDkPUPrDeX1091wnxDDi-22" value="音频设备设置：&#xa;打开 Studio One，进入“选项” -&gt; “音频设置” -&gt; “音频设备”。&#xa;驱动程序: 选择 Synido ASIO 驱动程序（如果已安装）。&#xa;输入设备: 选择 Synido 声卡的麦克风输入接口。&#xa;输出设备: 选择 Synido 声卡的监听输出接口。(选ASIO会降低延迟)&#xa;采样率和缓冲区大小: 根据电脑性能和延迟要求进行调整。建议从 44.1kHz 或 48kHz 开始，缓冲区大小从 128 样本开始尝试。" style="text;whiteSpace=wrap;" parent="1" vertex="1">
          <mxGeometry x="130" y="250" width="560" height="120" as="geometry" />
        </mxCell>
        <mxCell id="fDkPUPrDeX1091wnxDDi-24" value="音轨设置：&#xa;人声音轨: 创建一个音频音轨，选择麦克风作为输入。&#xa;伴奏音轨: 创建一个音频音轨，导入伴奏文件（MP3、WAV 等）。&#xa;背景音乐音轨: 创建一个音频音轨，导入背景音乐文件（MP3、WAV 等）" style="text;whiteSpace=wrap;" parent="1" vertex="1">
          <mxGeometry x="130" y="370" width="420" height="80" as="geometry" />
        </mxCell>
        <mxCell id="fDkPUPrDeX1091wnxDDi-25" value="效果器设置：&#xa;人声音轨: 添加压缩器、EQ、混响等效果器，提升人声质量。&#xa;伴奏音轨: 添加 EQ 等效果器，调整伴奏音色。&#xa;主输出: 将所有音轨发送到主输出，并调整主输出的音量" style="text;whiteSpace=wrap;" parent="1" vertex="1">
          <mxGeometry x="130" y="450" width="360" height="80" as="geometry" />
        </mxCell>
        <mxCell id="fDkPUPrDeX1091wnxDDi-26" value="Loopback 虚拟输入设备:&#xa;在 Loopback 中创建一个虚拟输入设备（例如“直播输入”）。&#xa;将 Studio One 的主输出发送到这个虚拟输入设备。&#xa;Loopback 虚拟输出设备:&#xa;在 Loopback 中创建一个虚拟输出设备（例如“直播输出”）。&#xa;将直播软件（OBS、Streamlabs OBS 等）的音频输入设置为这个虚拟输出设备。&#xa;Loopback 混音器:&#xa;在 Loopback 混音器中，调整各个音轨的音量，确保人声、伴奏、背景音乐的比例合适。&#xa;可以添加一些效果器，例如均衡器、压缩器等，进一步优化音频效果。" style="text;whiteSpace=wrap;fontColor=light-dark(#d71919, #ededed);fontStyle=1" parent="1" vertex="1">
          <mxGeometry x="320" y="15" width="500" height="150" as="geometry" />
        </mxCell>
        <mxCell id="fDkPUPrDeX1091wnxDDi-27" value="直播软件" style="rounded=0;whiteSpace=wrap;html=1;" parent="1" vertex="1">
          <mxGeometry x="680" y="175" width="120" height="60" as="geometry" />
        </mxCell>
      </root>
    </mxGraphModel>
  </diagram>
</mxfile>
